<?xml version="1.0" encoding="UTF-8" standalone="no"?>
<svg
   id="Layer_1"
   data-name="Layer 1"
   viewBox="0 0 528.74 528.74"
   version="1.1"
   xmlns="http://www.w3.org/2000/svg"
   xmlns:svg="http://www.w3.org/2000/svg">
  <defs
     id="defs1">
    <style
       id="style1">
      .cls-1 {
        fill: #d3d4d9;
      }

      .cls-2 {
        fill: #ff8d1a;
      }
    </style>
  </defs>
  <path
     class="cls-2"
     d="M528.74,107.71v313.32h-91.13l-115.56-168.17v168.17h-66.84c8.01-16.06,23.16-23.01,23.16-49.3,0-35.74-28-35.74-28-71.48s28-35.73,28-71.47-28-35.73-28-71.47c0-26.45,15.34-33.32,23.31-49.6h51.19l108.98,157.83V107.71h94.89Z"
     id="path1"
     style="fill:#000000;fill-opacity:1" />
  <path
     class="cls-1"
     d="M250.37,300.25c0,35.74,28,35.74,28,71.48,0,26.29-15.15,33.24-23.16,49.3h-48.05v-119.78h-112.27v119.78H0V107.71h94.89v110.86h112.27v-110.86h66.52c-7.97,16.28-23.31,23.15-23.31,49.6,0,35.74,28,35.74,28,71.47s-28,35.74-28,71.47Z"
     id="path2"
     style="fill:#f7e731;fill-opacity:1" />
</svg>
